<svg xmlns="http://www.w3.org/2000/svg" width="16" height="16" viewBox="0 0 16 16">
  <defs>
    <linearGradient id="run16-a" x1="23.111%" x2="76.889%" y1="100%" y2="0%">
      <stop offset="0%" stop-color="#00F"/>
      <stop offset="92.94%" stop-color="#A429DE"/>
      <stop offset="100%" stop-color="#FF40CB"/>
    </linearGradient>
  </defs>
  <g fill="none" fill-rule="evenodd">
    <g transform="translate(2)">
      <path fill="url(#run16-a)" d="M4,1 C4,0.44771525 4.44771525,5.68434189e-14 5,-1.13686838e-13 L6,-1.13686838e-13 C6.55228475,-1.13686838e-13 6.88888889,0.44771525 6.88888889,1 L9,1 C10.1045695,1 11,1.8954305 11,3 L11,13 C11,14.1045695 10.1045695,15 9,15 L2,15 C0.8954305,15 1.3527075e-16,14.1045695 0,13 L0,3 C-1.3527075e-16,1.8954305 0.8954305,1 2,1 L4,1 Z"/>
      <path fill="#282820" d="M4,2 L7,2 C7.55228475,2 8,2.44771525 8,3 L8,3 L3,3 L3,3 C3,2.44771525 3.44771525,2 4,2 Z" transform="matrix(1 0 0 -1 0 5)"/>
    </g>
    <polygon fill="#FFF" stroke="#FFF" stroke-linecap="round" stroke-linejoin="round" points="6.5 6.5 6.5 10.5 9.5 8.5"/>
  </g>
</svg>
